<svg id="visual" viewBox="0 0 900 600" width="900" height="600" xmlns="http://www.w3.org/2000/svg" xmlns:xlink="http://www.w3.org/1999/xlink" version="1.1"><rect x="0" y="0" width="900" height="600" fill="#002233"></rect><path d="M0 397L21.5 408.7C43 420.3 86 443.7 128.8 461.2C171.7 478.7 214.3 490.3 257.2 481C300 471.7 343 441.3 385.8 441.3C428.7 441.3 471.3 471.7 514.2 483.7C557 495.7 600 489.3 642.8 491.8C685.7 494.3 728.3 505.7 771.2 494.3C814 483 857 449 878.5 432L900 415L900 601L878.5 601C857 601 814 601 771.2 601C728.3 601 685.7 601 642.8 601C600 601 557 601 514.2 601C471.3 601 428.7 601 385.8 601C343 601 300 601 257.2 601C214.3 601 171.7 601 128.8 601C86 601 43 601 21.5 601L0 601Z" fill="#0066FF" stroke-linecap="round" stroke-linejoin="miter"></path></svg>